<?xml version="1.0" encoding="utf-8"?>
<!-- Generator: Adobe Illustrator 16.0.0, SVG Export Plug-In . SVG Version: 6.00 Build 0)  -->
<!DOCTYPE svg PUBLIC "-//W3C//DTD SVG 1.1//EN" "http://www.w3.org/Graphics/SVG/1.1/DTD/svg11.dtd">
<svg version="1.1" id="Layer_1" xmlns="http://www.w3.org/2000/svg" xmlns:xlink="http://www.w3.org/1999/xlink" x="0px" y="0px"
	 width="34px" height="34px" viewBox="0 0 34 34" enable-background="new 0 0 34 34" xml:space="preserve">
<g>
	<g>
		<polygon points="25.4,8.904 25.4,5.764 23.83,5.764 23.83,8.904 20.689,8.904 20.689,10.475 23.83,10.475 23.83,13.616 
			25.4,13.616 25.4,10.475 28.543,10.475 28.543,8.904 		"/>
	</g>
	<g>
		<path d="M20.143,5.449c0,0-5.027,0-6.809,0c-3.457,0-6.336,2.548-6.336,5.351c0,2.863,1.893,5.146,5.143,5.146
			c0.225,0,0.443-0.012,0.66-0.027c-0.211,0.404-0.361,0.854-0.361,1.327c0,0.796,0.438,1.25,0.979,1.776
			c-0.41,0-0.805,0.011-1.236,0.011c-3.955,0-6.725,2.723-6.725,5.336c0,2.572,3.338,4.182,7.295,4.182
			c4.51,0,7.283-2.56,7.283-5.133c0-2.062-0.445-3.1-2.645-4.749c-0.631-0.474-2.004-1.444-2.004-2.096
			c0-0.764,0.217-1.14,1.367-2.038c1.178-0.92,2.012-2.134,2.012-3.639c0-1.641-0.672-3.128-1.932-3.851h1.787L20.143,5.449z
			 M17.834,22.975c0.055,0.238,0.086,0.483,0.086,0.734c0,2.079-1.34,3.704-5.184,3.704c-2.734,0-4.709-1.731-4.709-3.811
			c0-2.037,2.316-3.795,5.053-3.765c0.637,0.006,1.23,0.109,1.771,0.283C16.336,21.153,17.533,21.799,17.834,22.975z M13.455,14.905
			c-1.836-0.055-3.578-1.738-3.896-4.148c-0.316-2.411,0.914-4.255,2.75-4.2c1.834,0.055,3.404,2.032,3.721,4.442
			S15.289,14.96,13.455,14.905z"/>
	</g>
</g>
</svg>
