<?xml version="1.0" encoding="utf-8"?>
<!-- Generator: Adobe Illustrator 16.0.0, SVG Export Plug-In . SVG Version: 6.00 Build 0)  -->
<!DOCTYPE svg PUBLIC "-//W3C//DTD SVG 1.1//EN" "http://www.w3.org/Graphics/SVG/1.1/DTD/svg11.dtd">
<svg version="1.1" id="Layer_1" xmlns="http://www.w3.org/2000/svg" xmlns:xlink="http://www.w3.org/1999/xlink" x="0px" y="0px"
	 width="34px" height="34px" viewBox="0 0 34 34" enable-background="new 0 0 34 34" xml:space="preserve">
<path d="M28.564,9.827c-0.85,0.378-1.766,0.632-2.729,0.748c0.98-0.587,1.734-1.516,2.09-2.625
	c-0.918,0.543-1.934,0.938-3.014,1.151c-0.865-0.922-2.098-1.498-3.463-1.498c-2.621,0-4.746,2.125-4.746,4.744
	c0,0.374,0.042,0.736,0.123,1.082c-3.943-0.198-7.44-2.087-9.781-4.958c-0.407,0.702-0.642,1.517-0.642,2.387
	c0,1.645,0.838,3.098,2.11,3.95c-0.777-0.025-1.509-0.24-2.15-0.596c0,0.021,0,0.04,0,0.062c0,2.298,1.636,4.216,3.807,4.652
	c-0.398,0.108-0.816,0.166-1.25,0.166c-0.305,0-0.603-0.029-0.893-0.084c0.604,1.884,2.356,3.256,4.432,3.296
	c-1.625,1.271-3.67,2.031-5.893,2.031c-0.383,0-0.76-0.022-1.132-0.067c2.1,1.346,4.594,2.131,7.274,2.131
	c8.728,0,13.501-7.23,13.501-13.5c0-0.205-0.006-0.409-0.014-0.613C27.121,11.615,27.93,10.78,28.564,9.827z"/>
</svg>
